<svg id="ed388f10-3520-4d42-8784-e876bfff0459" data-name="recast2" xmlns="http://www.w3.org/2000/svg" width="512" height="512" viewBox="0 0 512 512">
  <g>
    <path d="M311.78,193.2q0-23.08-13.51-33.59t-40-10.51H236.57a3.53,3.53,0,0,0-3.52,3.52v85.55a3.53,3.53,0,0,0,3.52,3.52h24.65q24.7,0,37.63-11.55T311.78,193.2Zm78,0q0,22.86-8.55,39.94A86.22,86.22,0,0,1,358.19,262a123.61,123.61,0,0,1-28.8,17.38,3.51,3.51,0,0,0-1.58,5.07l78.3,126.18a3.52,3.52,0,0,1-3,5.37H325.84a3.53,3.53,0,0,1-3.07-1.79L255.53,295.42a3.52,3.52,0,0,0-3.06-1.79h-15.9a3.53,3.53,0,0,0-3.52,3.52V412.48a3.53,3.53,0,0,1-3.52,3.52H160.84a3.53,3.53,0,0,1-3.52-3.52v-313A3.53,3.53,0,0,1,160.84,96H258q65.33,0,98.58,23.78T389.82,193.2Z" style="fill: #04260f"/>
    <path d="M304.28,192q0-23.52-13.76-34.22t-40.81-10.7H227.52a3.44,3.44,0,0,0-3.44,3.45V238a3.45,3.45,0,0,0,3.44,3.45h25.25q25.17,0,38.34-11.76T304.28,192Zm79.5,0q0,23.29-8.7,40.69a87.9,87.9,0,0,1-23.52,29.41,126.36,126.36,0,0,1-29.48,17.76,3.43,3.43,0,0,0-1.55,5l80,128.9a3.44,3.44,0,0,1-2.93,5.26H318.52a3.46,3.46,0,0,1-3-1.75L246.94,296.09a3.45,3.45,0,0,0-3-1.75H227.52a3.44,3.44,0,0,0-3.44,3.45V415.55a3.45,3.45,0,0,1-3.45,3.45H150.38a3.44,3.44,0,0,1-3.45-3.45V96.45A3.44,3.44,0,0,1,150.38,93h99.1Q316,93,349.91,117.23T383.78,192Z" style="fill: #144920"/>
    <path d="M296.79,190.85q0-24-14-34.86t-41.56-10.9H218.48a3.38,3.38,0,0,0-3.38,3.38v89.3a3.38,3.38,0,0,0,3.38,3.38h25.85q25.62,0,39-12T296.79,190.85Zm81,0q0,23.72-8.86,41.44a89.62,89.62,0,0,1-24,29.94,128.34,128.34,0,0,1-30.16,18.15,3.36,3.36,0,0,0-1.52,4.86l81.66,131.61a3.37,3.37,0,0,1-2.86,5.15H311.21a3.37,3.37,0,0,1-2.94-1.71L238.35,296.76a3.38,3.38,0,0,0-2.94-1.72H218.48a3.38,3.38,0,0,0-3.38,3.38V418.63a3.37,3.37,0,0,1-3.37,3.37H139.91a3.37,3.37,0,0,1-3.37-3.37V93.37A3.37,3.37,0,0,1,139.91,90H241q67.79,0,102.28,24.67T377.75,190.85Z" style="fill: #256b31"/>
    <path d="M289.29,189.67q0-24.39-14.27-35.48t-42.31-11.1H209.43a3.3,3.3,0,0,0-3.3,3.3v91.19a3.3,3.3,0,0,0,3.3,3.3h26.45q26.1,0,39.75-12.19T289.29,189.67Zm82.43,0q0,24.14-9,42.19a91.1,91.1,0,0,1-24.38,30.48,131.07,131.07,0,0,1-30.85,18.54,3.29,3.29,0,0,0-1.49,4.76L389.32,420a3.3,3.3,0,0,1-2.81,5H303.9a3.31,3.31,0,0,1-2.88-1.68L229.76,297.43a3.3,3.3,0,0,0-2.87-1.68H209.43a3.3,3.3,0,0,0-3.3,3.3V421.7a3.3,3.3,0,0,1-3.3,3.3H129.45a3.31,3.31,0,0,1-3.31-3.3V90.3a3.31,3.31,0,0,1,3.31-3.3h103q69,0,104.13,25.12T371.72,189.67Z" style="fill: #358e42"/>
    <path d="M281.79,188.49q0-24.81-14.51-36.11t-43.07-11.29H200.39a3.22,3.22,0,0,0-3.23,3.22v93.07a3.22,3.22,0,0,0,3.23,3.23h27.05q26.55,0,40.46-12.41T281.79,188.49Zm83.89,0q0,24.57-9.18,42.94a92.64,92.64,0,0,1-24.82,31,132.86,132.86,0,0,1-31.53,18.93,3.22,3.22,0,0,0-1.46,4.66l85,137A3.23,3.23,0,0,1,381,428h-84.4a3.25,3.25,0,0,1-2.81-1.64l-72.6-128.27a3.23,3.23,0,0,0-2.81-1.63h-18a3.22,3.22,0,0,0-3.23,3.22V424.77a3.23,3.23,0,0,1-3.23,3.23H119a3.23,3.23,0,0,1-3.23-3.23V87.23A3.23,3.23,0,0,1,119,84H224q70.23,0,106,25.56T365.68,188.49Z" style="fill: #46b053"/>
    <path d="M274.3,187.31q0-25.25-14.77-36.74t-43.82-11.49H191.34a3.15,3.15,0,0,0-3.15,3.16v94.95a3.15,3.15,0,0,0,3.15,3.15H219q27,0,41.17-12.62T274.3,187.31Zm85.35,0q0,25-9.34,43.69a94.53,94.53,0,0,1-25.25,31.57,135.42,135.42,0,0,1-32.22,19.31,3.14,3.14,0,0,0-1.43,4.55l86.71,139.75a3.15,3.15,0,0,1-2.68,4.82H289.27a3.16,3.16,0,0,1-2.75-1.6L212.58,298.76a3.16,3.16,0,0,0-2.75-1.6H191.34a3.15,3.15,0,0,0-3.15,3.16V427.84A3.16,3.16,0,0,1,185,431H108.52a3.15,3.15,0,0,1-3.16-3.16V84.16A3.15,3.15,0,0,1,108.52,81H215.46q71.46,0,107.83,26T359.65,187.31Z" style="fill: #56d364"/>
  </g>
</svg>
