<svg id="ab86f53f-3efa-4762-a28c-53cfaa7af3ba" data-name="Layer 2" xmlns="http://www.w3.org/2000/svg" width="512" height="512" viewBox="0 0 512 512">
  <path d="M512,6V506a6,6,0,0,1-6,6H6a6,6,0,0,1-6-6V6A6,6,0,0,1,6,0H191a49.8,49.8,0,0,1,35.34,14.65C235.38,23.69,240,36,240,50v50.72a5,5,0,0,0,2.14.48c1.27,0,1.79-.3,3.25-1.2,1.61-1,1.91-1.2,3.18-1.2A12.85,12.85,0,0,1,251,99l0-49A50,50,0,0,1,301,0H506A6,6,0,0,1,512,6Z" style="fill: #010409"/>
  <path d="M382.07,424.47,299.54,291.94a1,1,0,0,1,.48-1.45A124.64,124.64,0,0,0,331.59,272a86.35,86.35,0,0,0,23.17-28.86q8.57-17.08,8.57-39.94,0-49.63-33.37-73.42-28.06-20-79-23.18V99a12.85,12.85,0,0,0-2.43-.22c-1.27,0-1.57.2-3.18,1.2-1.46.9-2,1.2-3.25,1.2a5,5,0,0,1-2.14-.48v5.43c-3.26-.1-5.58-.15-9-.15H131a1,1,0,0,0-1,1V425a1,1,0,0,0,1,1h74a1,1,0,0,0,1-1V305a1,1,0,0,1,1-1h19.82a1,1,0,0,1,.88.51l68.48,121a1,1,0,0,0,.87.51h84.17A1,1,0,0,0,382.07,424.47ZM272.1,240.4q-13,11.61-37.81,11.6H207a1,1,0,0,1-1-1V160a1,1,0,0,1,1-1h24.28q26.67,0,40.24,10.55t13.57,33.75Q285.09,228.82,272.1,240.4Z" style="fill: #2da44e"/>
</svg>
