<?xml version="1.0" standalone="no"?>
<!DOCTYPE svg PUBLIC "-//W3C//DTD SVG 20010904//EN"
 "http://www.w3.org/TR/2001/REC-SVG-20010904/DTD/svg10.dtd">
<svg version="1.0" xmlns="http://www.w3.org/2000/svg"
 width="700.000000pt" height="700.000000pt" viewBox="0 0 700.000000 700.000000"
 preserveAspectRatio="xMidYMid meet">
<g transform="translate(0.000000,700.000000) scale(0.100000,-0.100000)"
fill="#000000" stroke="none">
<path d="M1535 5892 c-38 -2 -75 -8 -82 -14 -19 -16 -19 -4726 0 -4752 12 -16
48 -18 552 -18 l538 -1 18 22 c12 15 28 21 57 21 50 0 72 8 72 26 0 10 14 14
50 14 38 0 54 5 67 20 13 14 30 20 60 20 31 0 48 6 60 20 12 14 30 20 60 20
31 0 49 6 65 22 15 15 32 21 58 20 20 -1 45 5 56 12 18 14 19 34 21 548 1 293
2 535 2 537 1 4 131 -221 216 -374 23 -42 78 -140 177 -312 10 -18 28 -50 39
-70 20 -35 126 -222 171 -300 26 -46 49 -88 92 -165 21 -37 42 -71 48 -74 5
-4 283 -6 616 -7 l606 0 14 22 c8 11 25 21 38 21 13 0 29 9 36 20 7 11 23 20
35 20 13 0 32 9 43 20 11 11 28 20 38 20 11 0 27 9 37 20 10 11 26 20 37 20
10 0 27 9 38 20 11 11 30 22 43 24 12 1 28 14 36 28 17 29 65 -54 -409 708
-172 278 -341 550 -375 605 -34 55 -97 156 -140 225 -144 228 -155 250 -143
275 6 13 32 31 64 45 30 12 96 47 147 78 258 155 419 325 527 555 41 87 84
233 96 322 10 72 10 338 1 420 -15 134 -64 300 -123 418 -26 50 -97 161 -118
183 -6 6 -32 34 -58 62 -81 87 -227 189 -354 247 -61 28 -420 171 -579 231
-83 31 -177 61 -250 80 -16 4 -32 8 -35 9 -27 7 -83 18 -159 31 -18 3 -43 7
-54 10 -100 19 -238 32 -422 40 -154 6 -1505 11 -1630 6z m2022 -958 c83 -63
151 -188 179 -329 13 -70 13 -286 -1 -370 -20 -119 -82 -248 -157 -327 -76
-80 -257 -166 -358 -171 l-33 -2 0 597 c0 460 3 601 12 612 15 18 59 22 210
19 106 -2 116 -4 148 -29z"/>
</g>
</svg>
